<svg width="1356" height="328" viewBox="0 0 1356 328" fill="none" xmlns="http://www.w3.org/2000/svg">
<path fill-rule="evenodd" clip-rule="evenodd" d="M183.512 0.718313C201.405 -0.975037 218 0.728076 236.584 1.71245C342.345 7.3189 437.296 81.6529 391.769 194.902C376.875 231.952 334.811 254.814 297.891 268.271C325.228 285.253 355.795 302.441 383.718 318.896L378.187 327.587L301.381 327.529L224.582 281.484C132.165 286.376 5.53285 261.327 0.175179 147.656C-4.76134 42.946 95.5649 4.71352 183.512 0.718313ZM324.723 132.696C320.627 66.314 256.563 37.1646 196.386 39.6539C159.808 41.7047 126.852 49.3386 101.311 77.7857C67.8504 115.053 71.3004 181.045 110.433 213.085C138.236 236.171 172.86 243.271 207.984 241.962C273.513 238.33 329.278 206.523 324.723 132.696Z" fill="white"/>
<path d="M456.861 5.05327C485.883 73.9516 513.931 147.011 541.977 216.611C552.562 192.822 563.07 165.711 573.088 141.463L629.353 5.05523L719.478 5.0562C748.55 75.272 777.222 147.421 807.183 217.109C817.437 194.687 827.838 167.606 837.35 144.608L895.044 5.06109L957.652 5.05523L965.768 11.5689L946.812 55.1119L849.45 277.499H761.724C731.333 208.114 703.618 133.43 672.476 64.938C642.342 134.439 613.119 207.372 583.927 277.508L494.995 277.499C482.335 250.282 469.264 217.421 457.333 189.511L381.362 11.6705L389.633 5.08843L456.861 5.05327Z" fill="white"/>
<path d="M1341.76 13.1431C1298.76 53.4125 1250.41 95.6637 1206.21 135.034C1221.38 147.918 1238.01 163.671 1252.92 177.137L1355.37 269.549L1348.32 277.508L1272.39 277.499C1234.07 240.887 1196 203.417 1157.44 167.127C1118.93 202.518 1079.57 241.298 1041.59 277.499H970.416L963.512 269.559L1114.09 135.416C1071.12 95.0035 1023.03 52.9429 978.999 13.3462L986.168 5.07573L1061.47 5.05523L1163.63 103.898C1196.71 70.7557 1231.17 37.9407 1264.65 5.06499L1334.76 5.0523L1341.76 13.1431Z" fill="white"/>
</svg>
